<mxfile host="app.diagrams.net" modified="2022-12-20T13:43:09.635Z" agent="5.0 (Windows NT 10.0; Win64; x64) AppleWebKit/537.36 (KHTML, like Gecko) Chrome/108.0.0.0 Safari/537.36" version="20.7.4" etag="n2DPXuelqLZbd6nVho5v" type="github">
  <diagram id="d-HQx0A6RlXULR6_okz4" name="Page-1">
    <mxGraphModel dx="1434" dy="764" grid="1" gridSize="10" guides="1" tooltips="1" connect="1" arrows="1" fold="1" page="1" pageScale="1" pageWidth="850" pageHeight="1100" math="0" shadow="0">
      <root>
        <mxCell id="0" />
        <mxCell id="1" parent="0" />
        <mxCell id="T2zrcExbBJ0eOjrz7QeG-3" value="" style="edgeStyle=orthogonalEdgeStyle;rounded=0;orthogonalLoop=1;jettySize=auto;html=1;" edge="1" parent="1" source="T2zrcExbBJ0eOjrz7QeG-1" target="T2zrcExbBJ0eOjrz7QeG-2">
          <mxGeometry relative="1" as="geometry" />
        </mxCell>
        <mxCell id="T2zrcExbBJ0eOjrz7QeG-5" value="" style="edgeStyle=orthogonalEdgeStyle;rounded=0;orthogonalLoop=1;jettySize=auto;html=1;" edge="1" parent="1" source="T2zrcExbBJ0eOjrz7QeG-1" target="T2zrcExbBJ0eOjrz7QeG-4">
          <mxGeometry relative="1" as="geometry" />
        </mxCell>
        <mxCell id="T2zrcExbBJ0eOjrz7QeG-7" value="" style="edgeStyle=orthogonalEdgeStyle;rounded=0;orthogonalLoop=1;jettySize=auto;html=1;" edge="1" parent="1" source="T2zrcExbBJ0eOjrz7QeG-1" target="T2zrcExbBJ0eOjrz7QeG-6">
          <mxGeometry relative="1" as="geometry" />
        </mxCell>
        <mxCell id="T2zrcExbBJ0eOjrz7QeG-1" value="Summative" style="rounded=0;whiteSpace=wrap;html=1;" vertex="1" parent="1">
          <mxGeometry x="365" y="120" width="120" height="60" as="geometry" />
        </mxCell>
        <mxCell id="T2zrcExbBJ0eOjrz7QeG-9" value="" style="edgeStyle=orthogonalEdgeStyle;rounded=0;orthogonalLoop=1;jettySize=auto;html=1;" edge="1" parent="1" source="T2zrcExbBJ0eOjrz7QeG-2" target="T2zrcExbBJ0eOjrz7QeG-8">
          <mxGeometry relative="1" as="geometry" />
        </mxCell>
        <mxCell id="T2zrcExbBJ0eOjrz7QeG-2" value="Input" style="whiteSpace=wrap;html=1;rounded=0;" vertex="1" parent="1">
          <mxGeometry x="40" y="230" width="120" height="60" as="geometry" />
        </mxCell>
        <mxCell id="T2zrcExbBJ0eOjrz7QeG-11" value="" style="edgeStyle=orthogonalEdgeStyle;rounded=0;orthogonalLoop=1;jettySize=auto;html=1;" edge="1" parent="1" source="T2zrcExbBJ0eOjrz7QeG-4" target="T2zrcExbBJ0eOjrz7QeG-10">
          <mxGeometry relative="1" as="geometry" />
        </mxCell>
        <mxCell id="T2zrcExbBJ0eOjrz7QeG-4" value="Process" style="whiteSpace=wrap;html=1;rounded=0;" vertex="1" parent="1">
          <mxGeometry x="365" y="230" width="120" height="60" as="geometry" />
        </mxCell>
        <mxCell id="T2zrcExbBJ0eOjrz7QeG-6" value="Output" style="whiteSpace=wrap;html=1;rounded=0;" vertex="1" parent="1">
          <mxGeometry x="660" y="230" width="120" height="60" as="geometry" />
        </mxCell>
        <mxCell id="T2zrcExbBJ0eOjrz7QeG-15" value="" style="edgeStyle=orthogonalEdgeStyle;rounded=0;orthogonalLoop=1;jettySize=auto;html=1;" edge="1" parent="1" source="T2zrcExbBJ0eOjrz7QeG-8" target="T2zrcExbBJ0eOjrz7QeG-14">
          <mxGeometry relative="1" as="geometry" />
        </mxCell>
        <mxCell id="T2zrcExbBJ0eOjrz7QeG-8" value="User enters their account information to sign up (name, email, password)" style="whiteSpace=wrap;html=1;rounded=0;" vertex="1" parent="1">
          <mxGeometry x="40" y="370" width="120" height="60" as="geometry" />
        </mxCell>
        <mxCell id="T2zrcExbBJ0eOjrz7QeG-13" value="" style="edgeStyle=orthogonalEdgeStyle;rounded=0;orthogonalLoop=1;jettySize=auto;html=1;" edge="1" parent="1" source="T2zrcExbBJ0eOjrz7QeG-10" target="T2zrcExbBJ0eOjrz7QeG-12">
          <mxGeometry relative="1" as="geometry" />
        </mxCell>
        <mxCell id="T2zrcExbBJ0eOjrz7QeG-10" value="Leader board data is fetched and displayed" style="whiteSpace=wrap;html=1;rounded=0;" vertex="1" parent="1">
          <mxGeometry x="365" y="370" width="120" height="60" as="geometry" />
        </mxCell>
        <mxCell id="T2zrcExbBJ0eOjrz7QeG-12" value="" style="whiteSpace=wrap;html=1;rounded=0;" vertex="1" parent="1">
          <mxGeometry x="365" y="510" width="120" height="60" as="geometry" />
        </mxCell>
        <mxCell id="T2zrcExbBJ0eOjrz7QeG-14" value="User enters their account login information to login (name, password)" style="whiteSpace=wrap;html=1;rounded=0;" vertex="1" parent="1">
          <mxGeometry x="40" y="510" width="120" height="60" as="geometry" />
        </mxCell>
      </root>
    </mxGraphModel>
  </diagram>
</mxfile>
